<svg width="37" height="36" viewBox="0 0 37 36" fill="none" xmlns="http://www.w3.org/2000/svg">
<rect width="37" height="36" rx="6" fill="#53CAFD"/>
<path fill-rule="evenodd" clip-rule="evenodd" d="M20.2793 7.152C19.9093 7 19.4393 7 18.5003 7C17.5613 7 17.0923 7 16.7213 7.152C16.2288 7.35421 15.8367 7.74377 15.6313 8.235C15.5373 8.458 15.5013 8.719 15.4863 9.098C15.4796 9.3726 15.403 9.64097 15.2638 9.87772C15.1245 10.1145 14.9271 10.3118 14.6903 10.451C14.4491 10.5851 14.1779 10.6561 13.9018 10.6575C13.6258 10.6589 13.3539 10.5907 13.1113 10.459C12.7733 10.281 12.5283 10.183 12.2863 10.151C11.7569 10.0815 11.2214 10.2238 10.7963 10.547C10.4783 10.789 10.2433 11.193 9.77432 12C9.30432 12.807 9.07032 13.21 9.01732 13.605C8.94732 14.131 9.09132 14.663 9.41732 15.084C9.56532 15.276 9.77432 15.437 10.0973 15.639C10.5743 15.936 10.8803 16.442 10.8803 17C10.8803 17.558 10.5743 18.064 10.0983 18.36C9.77432 18.563 9.56532 18.724 9.41632 18.916C9.2554 19.1239 9.13728 19.3617 9.0688 19.6156C9.00031 19.8694 8.98282 20.1343 9.01732 20.395C9.07032 20.789 9.30432 21.193 9.77432 22C10.2443 22.807 10.4783 23.21 10.7963 23.453C11.2203 23.776 11.7563 23.918 12.2863 23.849C12.5283 23.817 12.7733 23.719 13.1113 23.541C13.354 23.4092 13.6261 23.3408 13.9023 23.3422C14.1786 23.3436 14.4499 23.4147 14.6913 23.549C15.1773 23.829 15.4653 24.344 15.4863 24.902C15.5013 25.282 15.5373 25.542 15.6313 25.765C15.8353 26.255 16.2273 26.645 16.7213 26.848C17.0913 27 17.5613 27 18.5003 27C19.4393 27 19.9093 27 20.2793 26.848C20.7719 26.6458 21.1639 26.2562 21.3693 25.765C21.4633 25.542 21.4993 25.282 21.5143 24.902C21.5343 24.344 21.8233 23.828 22.3103 23.549C22.5516 23.4149 22.8228 23.3439 23.0988 23.3425C23.3748 23.3411 23.6467 23.4093 23.8893 23.541C24.2273 23.719 24.4723 23.817 24.7143 23.849C25.2443 23.919 25.7803 23.776 26.2043 23.453C26.5223 23.211 26.7573 22.807 27.2263 22C27.6963 21.193 27.9303 20.79 27.9833 20.395C28.0177 20.1343 28 19.8693 27.9314 19.6155C27.8627 19.3616 27.7444 19.1239 27.5833 18.916C27.4353 18.724 27.2263 18.563 26.9033 18.361C26.4263 18.064 26.1203 17.558 26.1203 17C26.1203 16.442 26.4263 15.936 26.9023 15.64C27.2263 15.437 27.4353 15.276 27.5843 15.084C27.7452 14.8761 27.8633 14.6383 27.9318 14.3844C28.0003 14.1306 28.0178 13.8657 27.9833 13.605C27.9303 13.211 27.6963 12.807 27.2263 12C26.7563 11.193 26.5223 10.79 26.2043 10.547C25.7792 10.2238 25.2438 10.0815 24.7143 10.151C24.4723 10.183 24.2273 10.281 23.8893 10.459C23.6466 10.5908 23.3745 10.6592 23.0983 10.6578C22.8221 10.6564 22.5507 10.5853 22.3093 10.451C22.0727 10.3117 21.8755 10.1143 21.7364 9.87755C21.5973 9.64081 21.5209 9.37251 21.5143 9.098C21.4993 8.718 21.4633 8.458 21.3693 8.235C21.2677 7.99174 21.1191 7.77088 20.9321 7.58506C20.745 7.39923 20.5232 7.25208 20.2793 7.152ZM18.5003 20C20.1703 20 21.5233 18.657 21.5233 17C21.5233 15.343 20.1693 14 18.5003 14C16.8303 14 15.4773 15.343 15.4773 17C15.4773 18.657 16.8313 20 18.5003 20Z" fill="white"/>
</svg>
