<svg width="43" height="42" viewBox="0 0 43 42" fill="none" xmlns="http://www.w3.org/2000/svg">
<rect width="43" height="42" rx="21" fill="#FB85F6" fill-opacity="0.1"/>
<path d="M31.0384 24.0288L26.0272 21.6384L23.9082 20.6275C23.9613 20.5939 24.0118 20.5558 24.064 20.5203H26.8464C27.0533 20.5203 27.2517 20.4381 27.3981 20.2918C27.5444 20.1455 27.6266 19.9471 27.6266 19.7402V17.6874H27.6195C27.5344 14.8266 26.5408 12.3098 25.0486 10.7315C24.2618 9.84416 23.2419 9.24128 22.1011 9.06112C22.0502 9.0528 21.9994 9.04512 21.9482 9.0384C21.8893 9.03104 21.8307 9.02368 21.7712 9.01888C21.6433 9.00696 21.515 9.00066 21.3866 9H21.3859C21.2586 9 21.1328 9.00736 21.0074 9.01824C20.9472 9.02336 20.8877 9.03072 20.8282 9.03808C20.7782 9.04448 20.7286 9.05152 20.6794 9.05984C19.5478 9.2368 18.535 9.8304 17.7504 10.705C16.2438 12.2816 15.2394 14.8102 15.1536 17.6877H15.1469V19.7405C15.1469 19.9474 15.2291 20.1458 15.3754 20.2921C15.5217 20.4384 15.7201 20.5206 15.927 20.5206H18.7171C18.7933 20.5725 18.8691 20.6253 18.9478 20.6726L16.9184 21.6176L11.7446 24.0272C11.295 24.2378 11 24.7446 11 25.3107V30.9955C11 31.7574 11.5309 32.375 12.1866 32.375H30.5878C31.2435 32.375 31.7744 31.7574 31.7744 30.9955V25.3101C31.7741 24.7459 31.4835 24.2438 31.0384 24.0288Z" fill="#FB85F6"/>
</svg>
