<svg width="43" height="43" viewBox="0 0 43 43" fill="none" xmlns="http://www.w3.org/2000/svg">
<rect y="0.5" width="43" height="42" rx="21" fill="#53CAFD" fill-opacity="0.1"/>
<g clip-path="url(#clip0_204_4372)">
<path d="M25.0027 26.9005C24.924 25.9203 24.9019 24.937 24.9365 23.9547L24.9353 23.9978C25.893 23.0878 26.4903 21.9097 26.6318 20.6518L26.6344 20.6273C27.0658 20.5947 27.7467 20.2097 27.9453 18.6837C28.0052 18.4209 27.9826 18.1479 27.8801 17.8963C27.7776 17.6448 27.5994 17.4251 27.3662 17.2627L27.3624 17.2603C28.0649 15.3237 29.5235 9.33167 24.6629 8.71333C24.1627 7.90833 22.8824 7.5 21.2176 7.5C14.5575 7.612 13.7544 12.1095 15.2104 17.2603C14.9753 17.4243 14.796 17.6462 14.6934 17.9001C14.5909 18.154 14.5693 18.4294 14.6313 18.6942L14.63 18.6848C14.8336 20.2085 15.5095 20.5958 15.9409 20.6285C16.0923 21.9003 16.7086 23.0878 17.6896 23.9978C17.7219 24.9974 17.6973 25.9978 17.6158 26.995L17.6222 26.9005C16.3011 30.1485 7.40727 29.2362 7 35.5H35.5829C35.1731 29.2362 26.32 30.1485 25.0015 26.9005H25.0027Z" fill="#53CAFD"/>
</g>
<defs>
<clipPath id="clip0_204_4372">
<rect width="28" height="28" fill="white" transform="translate(7 7.5)"/>
</clipPath>
</defs>
</svg>
