<svg width="28" height="29" viewBox="0 0 28 29" fill="none" xmlns="http://www.w3.org/2000/svg">
<path d="M9.09891 19.575C9.19087 19.6441 9.29555 19.6944 9.40697 19.723C9.51839 19.7516 9.63436 19.758 9.74824 19.7417C9.86212 19.7255 9.97168 19.6869 10.0706 19.6283C10.1696 19.5697 10.256 19.4921 10.325 19.4C10.8548 18.6936 11.5417 18.1203 12.3315 17.7254C13.1212 17.3306 13.992 17.125 14.875 17.125C15.758 17.125 16.6288 17.3306 17.4185 17.7254C18.2083 18.1203 18.8952 18.6936 19.425 19.4C19.4939 19.4919 19.5803 19.5694 19.6792 19.6279C19.7781 19.6865 19.8875 19.725 20.0013 19.7412C20.115 19.7575 20.2308 19.7511 20.3422 19.7226C20.4535 19.6941 20.5581 19.6439 20.65 19.575C20.7419 19.5061 20.8194 19.4197 20.8779 19.3208C20.9365 19.2219 20.975 19.1125 20.9912 18.9987C21.0075 18.885 21.0011 18.7692 20.9726 18.6578C20.9441 18.5465 20.8939 18.4419 20.825 18.35C20.0502 17.3112 19.017 16.4933 17.8281 15.9777C18.4797 15.3828 18.9361 14.6049 19.1376 13.746C19.3391 12.8871 19.2763 11.9873 18.9573 11.1647C18.6382 10.3422 18.078 9.63532 17.3501 9.13688C16.6221 8.63843 15.7605 8.3717 14.8783 8.3717C13.996 8.3717 13.1344 8.63843 12.4065 9.13688C11.6786 9.63532 11.1183 10.3422 10.7993 11.1647C10.4803 11.9873 10.4174 12.8871 10.6189 13.746C10.8204 14.6049 11.2769 15.3828 11.9284 15.9777C10.7372 16.4924 9.70161 17.3103 8.925 18.35C8.78564 18.5355 8.72568 18.7688 8.75829 18.9985C8.7909 19.2282 8.91342 19.4356 9.09891 19.575ZM12.25 12.75C12.25 12.2308 12.404 11.7233 12.6924 11.2916C12.9808 10.8599 13.3908 10.5235 13.8705 10.3248C14.3501 10.1261 14.8779 10.0742 15.3871 10.1754C15.8963 10.2767 16.364 10.5267 16.7312 10.8938C17.0983 11.261 17.3483 11.7287 17.4496 12.2379C17.5508 12.7471 17.4989 13.2749 17.3002 13.7545C17.1015 14.2342 16.765 14.6442 16.3334 14.9326C15.9017 15.221 15.3942 15.375 14.875 15.375C14.1788 15.375 13.5111 15.0984 13.0188 14.6062C12.5266 14.1139 12.25 13.4462 12.25 12.75ZM22.75 3.125H7C6.53587 3.125 6.09075 3.30937 5.76256 3.63756C5.43437 3.96575 5.25 4.41087 5.25 4.875V7.5H3.5C3.26794 7.5 3.04538 7.59219 2.88128 7.75628C2.71719 7.92038 2.625 8.14294 2.625 8.375C2.625 8.60706 2.71719 8.82962 2.88128 8.99372C3.04538 9.15781 3.26794 9.25 3.5 9.25H5.25V13.625H3.5C3.26794 13.625 3.04538 13.7172 2.88128 13.8813C2.71719 14.0454 2.625 14.2679 2.625 14.5C2.625 14.7321 2.71719 14.9546 2.88128 15.1187C3.04538 15.2828 3.26794 15.375 3.5 15.375H5.25V19.75H3.5C3.26794 19.75 3.04538 19.8422 2.88128 20.0063C2.71719 20.1704 2.625 20.3929 2.625 20.625C2.625 20.8571 2.71719 21.0796 2.88128 21.2437C3.04538 21.4078 3.26794 21.5 3.5 21.5H5.25V24.125C5.25 24.5891 5.43437 25.0342 5.76256 25.3624C6.09075 25.6906 6.53587 25.875 7 25.875H22.75C23.2141 25.875 23.6592 25.6906 23.9874 25.3624C24.3156 25.0342 24.5 24.5891 24.5 24.125V4.875C24.5 4.41087 24.3156 3.96575 23.9874 3.63756C23.6592 3.30937 23.2141 3.125 22.75 3.125ZM22.75 24.125H7V4.875H22.75V24.125Z" fill="#4A4A4A"/>
</svg>
