<svg width="36" height="36" viewBox="0 0 36 36" fill="none" xmlns="http://www.w3.org/2000/svg">
<g clip-path="url(#clip0_442_1109)">
<path d="M23.4281 16.8304C23.2411 16.6407 22.9865 16.5332 22.7202 16.5313C22.4539 16.5294 22.1978 16.6334 22.0081 16.8204C21.8185 17.0073 21.7109 17.262 21.709 17.5283C21.7072 17.7946 21.8111 18.0507 21.9981 18.2404L25.7181 22.0004H7.82812C7.56291 22.0004 7.30855 22.1057 7.12102 22.2933C6.93348 22.4808 6.82812 22.7351 6.82812 23.0004C6.82812 23.2656 6.93348 23.5199 7.12102 23.7075C7.30855 23.895 7.56291 24.0004 7.82812 24.0004H25.7181L21.9981 27.7004C21.9055 27.7936 21.8322 27.9042 21.7824 28.0257C21.7325 28.1473 21.7071 28.2775 21.7076 28.4089C21.708 28.5403 21.7344 28.6703 21.7851 28.7915C21.8358 28.9127 21.9099 29.0228 22.0031 29.1154C22.0964 29.2079 22.2069 29.2813 22.3285 29.3311C22.4501 29.381 22.5803 29.4064 22.7117 29.4059C22.8431 29.4055 22.9731 29.3791 23.0943 29.3284C23.2155 29.2777 23.3255 29.2036 23.4181 29.1104L29.5281 23.0004L23.4281 16.8304Z" fill="#4A4A4A"/>
<path d="M13.2419 18.4481C13.4405 18.4492 13.635 18.3912 13.8005 18.2814C13.966 18.1716 14.0951 18.015 14.1712 17.8315C14.2474 17.6481 14.2672 17.4461 14.2282 17.2514C14.1891 17.0566 14.0929 16.8779 13.9519 16.7381L10.2419 12.9981H28.1219C28.3871 12.9981 28.6414 12.8927 28.829 12.7052C29.0165 12.5176 29.1219 12.2633 29.1219 11.9981C29.1219 11.7328 29.0165 11.4785 28.829 11.291C28.6414 11.1034 28.3871 10.9981 28.1219 10.9981H10.2419L13.9519 7.26806C14.0445 7.17482 14.1178 7.06426 14.1676 6.94269C14.2175 6.82112 14.2429 6.69092 14.2424 6.55953C14.242 6.42813 14.2156 6.29811 14.1649 6.1769C14.1142 6.05568 14.0401 5.94564 13.9469 5.85306C13.8536 5.76048 13.7431 5.68717 13.6215 5.63732C13.4999 5.58746 13.3697 5.56204 13.2383 5.56251C12.973 5.56344 12.7189 5.66976 12.5319 5.85806L6.42188 11.9981L12.5319 18.1381C12.6237 18.2344 12.7337 18.3114 12.8556 18.3646C12.9775 18.4178 13.1089 18.4462 13.2419 18.4481Z" fill="#4A4A4A"/>
</g>
<defs>
<clipPath id="clip0_442_1109">
<rect width="36" height="36" fill="white"/>
</clipPath>
</defs>
</svg>
