<svg width="28" height="29" viewBox="0 0 28 29" fill="none" xmlns="http://www.w3.org/2000/svg">
<path d="M17.5 25V15.6667C17.5 15.3572 17.3771 15.0605 17.1583 14.8417C16.9395 14.6229 16.6428 14.5 16.3333 14.5H11.6667C11.3572 14.5 11.0605 14.6229 10.8417 14.8417C10.6229 15.0605 10.5 15.3572 10.5 15.6667V25" stroke="#4A4A4A" stroke-width="2" stroke-linecap="round" stroke-linejoin="round"/>
<path d="M3.5 12.1648C3.49992 11.8253 3.57389 11.49 3.71675 11.1821C3.85962 10.8742 4.06793 10.6012 4.32717 10.3821L12.4938 3.38326C12.915 3.02732 13.4486 2.83203 14 2.83203C14.5514 2.83203 15.085 3.02732 15.5062 3.38326L23.6728 10.3821C23.9321 10.6012 24.1404 10.8742 24.2832 11.1821C24.4261 11.49 24.5001 11.8253 24.5 12.1648V22.6648C24.5 23.2836 24.2542 23.8771 23.8166 24.3147C23.379 24.7523 22.7855 24.9981 22.1667 24.9981H5.83333C5.21449 24.9981 4.621 24.7523 4.18342 24.3147C3.74583 23.8771 3.5 23.2836 3.5 22.6648V12.1648Z" stroke="#4A4A4A" stroke-width="2" stroke-linecap="round" stroke-linejoin="round"/>
</svg>
