<svg width="28" height="29" viewBox="0 0 28 29" fill="none" xmlns="http://www.w3.org/2000/svg">
<path d="M24.5 19.1656C24.5 22.4661 24.5 24.1158 23.4745 25.1413C22.4502 26.1656 20.7993 26.1656 17.5 26.1656H10.5C7.20067 26.1656 5.54983 26.1656 4.5255 25.1413C3.5 24.1146 3.5 22.4661 3.5 19.1656V15.6656M18.6667 5.16797C21.2042 5.18197 22.5785 5.29514 23.4745 6.19114C24.5 7.21664 24.5 8.8663 24.5 12.1656V14.499M9.33333 5.16797C6.79583 5.18197 5.4215 5.29514 4.5255 6.19114C3.62833 7.08714 3.51633 8.46147 3.50233 10.999M10.5 20.9156H17.5" stroke="#4A4A4A" stroke-width="1.5" stroke-linecap="round"/>
<path d="M9.33594 4.58203C9.33594 4.1179 9.52031 3.67278 9.8485 3.34459C10.1767 3.01641 10.6218 2.83203 11.0859 2.83203H16.9193C17.3834 2.83203 17.8285 3.01641 18.1567 3.34459C18.4849 3.67278 18.6693 4.1179 18.6693 4.58203V5.7487C18.6693 6.21283 18.4849 6.65795 18.1567 6.98613C17.8285 7.31432 17.3834 7.4987 16.9193 7.4987H11.0859C10.6218 7.4987 10.1767 7.31432 9.8485 6.98613C9.52031 6.65795 9.33594 6.21283 9.33594 5.7487V4.58203Z" stroke="#4A4A4A" stroke-width="1.5"/>
<path d="M9.33073 16.8333H10.4974M18.6641 16.8333H13.9974M19.8307 12.75H17.4974M13.9974 12.75H8.16406" stroke="#4A4A4A" stroke-width="1.5" stroke-linecap="round"/>
</svg>
