<svg width="28" height="29" viewBox="0 0 28 29" fill="none" xmlns="http://www.w3.org/2000/svg">
<path d="M12.8215 17.7713C13.9942 16.9905 14.8846 15.8531 15.3609 14.5273C15.8372 13.2014 15.8742 11.7574 15.4663 10.4089C15.0585 9.06038 14.2275 7.87891 13.0963 7.03919C11.9651 6.19948 10.5936 5.74609 9.18481 5.74609C7.77597 5.74609 6.40454 6.19948 5.27331 7.03919C4.14208 7.87891 3.31111 9.06038 2.90328 10.4089C2.49546 11.7574 2.53243 13.2014 3.00873 14.5273C3.48503 15.8531 4.37537 16.9905 5.54809 17.7713C3.42675 18.5531 1.61508 19.9999 0.383401 21.8958C0.318669 21.992 0.273705 22.1001 0.251125 22.2139C0.228544 22.3276 0.228797 22.4447 0.251868 22.5583C0.27494 22.672 0.32037 22.7799 0.385517 22.8758C0.450665 22.9718 0.534231 23.0538 0.631357 23.1171C0.728484 23.1805 0.837234 23.2239 0.951285 23.2448C1.06534 23.2658 1.18242 23.2639 1.29572 23.2392C1.40902 23.2145 1.51628 23.1675 1.61127 23.101C1.70625 23.0345 1.78707 22.9497 1.84903 22.8517C2.64352 21.6298 3.73067 20.6256 5.01175 19.9305C6.29284 19.2354 7.72728 18.8713 9.18481 18.8713C10.6423 18.8713 12.0768 19.2354 13.3579 19.9305C14.6389 20.6256 15.7261 21.6298 16.5206 22.8517C16.6489 23.0425 16.8472 23.175 17.0725 23.2208C17.2978 23.2665 17.532 23.2218 17.7246 23.0962C17.9171 22.9706 18.0525 22.7742 18.1015 22.5496C18.1504 22.325 18.109 22.0901 17.9862 21.8958C16.7545 19.9999 14.9429 18.5531 12.8215 17.7713ZM4.37231 12.3113C4.37231 11.3594 4.65456 10.429 5.18336 9.63757C5.71216 8.84616 6.46377 8.22933 7.34314 7.86509C8.22251 7.50084 9.19015 7.40554 10.1237 7.59123C11.0572 7.77692 11.9147 8.23526 12.5878 8.9083C13.2608 9.58135 13.7191 10.4389 13.9048 11.3724C14.0905 12.3059 13.9952 13.2736 13.631 14.1529C13.2667 15.0323 12.6499 15.7839 11.8585 16.3127C11.0671 16.8415 10.1366 17.1238 9.18481 17.1238C7.9089 17.1223 6.68566 16.6148 5.78345 15.7126C4.88125 14.8104 4.37375 13.5872 4.37231 12.3113ZM27.3564 23.1066C27.162 23.2333 26.9253 23.2777 26.6982 23.2299C26.4711 23.1821 26.2724 23.0461 26.1456 22.8517C25.3521 21.629 24.265 20.6245 22.9837 19.9296C21.7023 19.2348 20.2674 18.8718 18.8098 18.8738C18.5777 18.8738 18.3552 18.7816 18.1911 18.6175C18.027 18.4534 17.9348 18.2308 17.9348 17.9988C17.9348 17.7667 18.027 17.5441 18.1911 17.38C18.3552 17.2159 18.5777 17.1238 18.8098 17.1238C19.5185 17.1231 20.2183 16.9659 20.8593 16.6634C21.5002 16.3609 22.0664 15.9206 22.5174 15.3739C22.9685 14.8273 23.2932 14.1877 23.4684 13.501C23.6436 12.8143 23.665 12.0974 23.531 11.4014C23.397 10.7055 23.111 10.0477 22.6933 9.47516C22.2756 8.90259 21.7367 8.42933 21.1149 8.0892C20.4931 7.74907 19.8039 7.55047 19.0965 7.50758C18.3891 7.46469 17.6809 7.57858 17.0226 7.8411C16.9153 7.8875 16.7997 7.91192 16.6828 7.9129C16.5659 7.91389 16.4499 7.89143 16.3418 7.84685C16.2337 7.80227 16.1357 7.73648 16.0534 7.65336C15.9712 7.57024 15.9064 7.47147 15.863 7.3629C15.8196 7.25433 15.7983 7.13816 15.8006 7.02125C15.8028 6.90433 15.8284 6.78905 15.876 6.68222C15.9235 6.57538 15.992 6.47916 16.0773 6.39924C16.1627 6.31931 16.2632 6.2573 16.3729 6.21688C17.8795 5.61603 19.5553 5.59441 21.0769 6.15619C22.5985 6.71796 23.8581 7.82333 24.6128 9.25906C25.3675 10.6948 25.5638 12.3591 25.1637 13.931C24.7637 15.5029 23.7957 16.871 22.4465 17.7713C24.5679 18.5531 26.3795 19.9999 27.6112 21.8958C27.738 22.0902 27.7823 22.3269 27.7345 22.554C27.6867 22.781 27.5507 22.9798 27.3564 23.1066Z" fill="#4A4A4A"/>
</svg>
