<svg width="29" height="29" viewBox="0 0 29 29" fill="none" xmlns="http://www.w3.org/2000/svg">
<rect width="29" height="29" rx="14.5" fill="#16C28F" fill-opacity="0.1"/>
<path d="M23 15C22.7348 15 22.4804 15.1054 22.2929 15.2929C22.1054 15.4804 22 15.7348 22 16V20C22 20.2652 21.8946 20.5196 21.7071 20.7071C21.5196 20.8946 21.2652 21 21 21H7C6.73478 21 6.48043 20.8946 6.29289 20.7071C6.10536 20.5196 6 20.2652 6 20V16C6 15.7348 5.89464 15.4804 5.70711 15.2929C5.51957 15.1054 5.26522 15 5 15C4.73478 15 4.48043 15.1054 4.29289 15.2929C4.10536 15.4804 4 15.7348 4 16V20C4 20.7956 4.31607 21.5587 4.87868 22.1213C5.44129 22.6839 6.20435 23 7 23H21C21.7956 23 22.5587 22.6839 23.1213 22.1213C23.6839 21.5587 24 20.7956 24 20V16C24 15.7348 23.8946 15.4804 23.7071 15.2929C23.5196 15.1054 23.2652 15 23 15ZM13.29 16.71C13.3851 16.801 13.4972 16.8724 13.62 16.92C13.7397 16.9729 13.8691 17.0002 14 17.0002C14.1309 17.0002 14.2603 16.9729 14.38 16.92C14.5028 16.8724 14.6149 16.801 14.71 16.71L18.71 12.71C18.8983 12.5217 19.0041 12.2663 19.0041 12C19.0041 11.7337 18.8983 11.4783 18.71 11.29C18.5217 11.1017 18.2663 10.9959 18 10.9959C17.7337 10.9959 17.4783 11.1017 17.29 11.29L15 13.59V4C15 3.73478 14.8946 3.48043 14.7071 3.29289C14.5196 3.10536 14.2652 3 14 3C13.7348 3 13.4804 3.10536 13.2929 3.29289C13.1054 3.48043 13 3.73478 13 4V13.59L10.71 11.29C10.6168 11.1968 10.5061 11.1228 10.3842 11.0723C10.2624 11.0219 10.1319 10.9959 10 10.9959C9.86814 10.9959 9.73757 11.0219 9.61575 11.0723C9.49393 11.1228 9.38324 11.1968 9.29 11.29C9.19676 11.3832 9.1228 11.4939 9.07234 11.6158C9.02188 11.7376 8.99591 11.8681 8.99591 12C8.99591 12.1319 9.02188 12.2624 9.07234 12.3842C9.1228 12.5061 9.19676 12.6168 9.29 12.71L13.29 16.71Z" fill="#16C28F"/>
</svg>
