<svg width="116" height="118" viewBox="0 0 116 118" fill="none" xmlns="http://www.w3.org/2000/svg">
<g filter="url(#filter0_bd_640_6608)">
<rect x="40" y="20" width="36" height="38" rx="4" fill="url(#paint0_linear_640_6608)" shape-rendering="crispEdges"/>
<rect x="40.5" y="20.5" width="35" height="37" rx="3.5" stroke="url(#paint1_linear_640_6608)" stroke-opacity="0.6" shape-rendering="crispEdges"/>
<path d="M60.332 39V48.1933C60.3787 48.5433 60.262 48.9167 59.9937 49.1617C59.8858 49.2698 59.7576 49.3556 59.6164 49.4142C59.4753 49.4727 59.324 49.5028 59.1712 49.5028C59.0184 49.5028 58.8671 49.4727 58.726 49.4142C58.5848 49.3556 58.4566 49.2698 58.3487 49.1617L56.0037 46.8167C55.8765 46.6922 55.7798 46.5401 55.7211 46.3721C55.6624 46.2041 55.6434 46.0249 55.6654 45.8483V39H55.6304L48.9104 30.39C48.7209 30.1468 48.6354 29.8385 48.6726 29.5324C48.7097 29.2264 48.8665 28.9475 49.1087 28.7567C49.3304 28.5933 49.5754 28.5 49.832 28.5H66.1654C66.422 28.5 66.667 28.5933 66.8887 28.7567C67.1308 28.9475 67.2876 29.2264 67.3248 29.5324C67.362 29.8385 67.2765 30.1468 67.087 30.39L60.367 39H60.332Z" fill="#B4B4B4"/>
</g>
<defs>
<filter id="filter0_bd_640_6608" x="0" y="0" width="116" height="118" filterUnits="userSpaceOnUse" color-interpolation-filters="sRGB">
<feFlood flood-opacity="0" result="BackgroundImageFix"/>
<feGaussianBlur in="BackgroundImageFix" stdDeviation="10"/>
<feComposite in2="SourceAlpha" operator="in" result="effect1_backgroundBlur_640_6608"/>
<feColorMatrix in="SourceAlpha" type="matrix" values="0 0 0 0 0 0 0 0 0 0 0 0 0 0 0 0 0 0 127 0" result="hardAlpha"/>
<feOffset dy="20"/>
<feGaussianBlur stdDeviation="20"/>
<feComposite in2="hardAlpha" operator="out"/>
<feColorMatrix type="matrix" values="0 0 0 0 0 0 0 0 0 0 0 0 0 0 0 0 0 0 0.2 0"/>
<feBlend mode="normal" in2="effect1_backgroundBlur_640_6608" result="effect2_dropShadow_640_6608"/>
<feBlend mode="normal" in="SourceGraphic" in2="effect2_dropShadow_640_6608" result="shape"/>
</filter>
<linearGradient id="paint0_linear_640_6608" x1="40" y1="21.0693" x2="83.2611" y2="34.3531" gradientUnits="userSpaceOnUse">
<stop stop-color="white" stop-opacity="0.7"/>
<stop offset="1" stop-color="white" stop-opacity="0.4"/>
</linearGradient>
<linearGradient id="paint1_linear_640_6608" x1="39.055" y1="20" x2="86.3514" y2="35.0707" gradientUnits="userSpaceOnUse">
<stop stop-color="white"/>
<stop offset="1" stop-color="white"/>
</linearGradient>
</defs>
</svg>
