<svg width="29" height="29" viewBox="0 0 29 29" fill="none" xmlns="http://www.w3.org/2000/svg">
<rect width="29" height="29" rx="14.5" fill="#FD5353" fill-opacity="0.1"/>
<path d="M24.0829 11.7265C24.0806 11.4878 23.9836 11.2598 23.8133 11.0927C23.6429 10.9255 23.4131 10.8329 23.1744 10.8352C22.9357 10.8374 22.7077 10.9344 22.5405 11.1048C22.3734 11.2752 22.2807 11.505 22.283 11.7437L22.3545 19.2434C22.3606 19.8798 22.1136 20.4927 21.6678 20.947C21.222 21.4014 20.614 21.6601 19.9775 21.6661L10.378 21.7577C9.74147 21.7638 9.12863 21.5167 8.67427 21.071C8.21991 20.6252 7.96125 20.0172 7.95518 19.3807L7.88365 11.881C7.88138 11.6423 7.78438 11.4143 7.61399 11.2472C7.44361 11.08 7.2138 10.9874 6.97511 10.9896C6.73643 10.9919 6.50842 11.0889 6.34126 11.2593C6.17409 11.4297 6.08146 11.6595 6.08373 11.8982L6.15526 19.3978C6.16588 20.5117 6.61855 21.5757 7.41368 22.3558C8.20881 23.1359 9.28126 23.5682 10.3951 23.5576L19.9947 23.4661C21.1085 23.4554 22.1726 23.0028 22.9527 22.2076C23.7328 21.4125 24.1651 20.34 24.1544 19.2262L24.0829 11.7265ZM10.511 10.6667C10.4299 10.5807 10.3666 10.4795 10.3247 10.369C10.2827 10.2584 10.263 10.1407 10.2665 10.0226C10.2701 9.90441 10.2969 9.78811 10.3454 9.68031C10.3939 9.5725 10.4632 9.47531 10.5493 9.39429L14.4148 5.75726C14.5796 5.60202 14.7968 5.5146 15.0232 5.51245C15.2496 5.51029 15.4685 5.59354 15.6363 5.74561L19.5704 9.30825C19.7472 9.46873 19.8529 9.69284 19.8644 9.93129C19.8759 10.1697 19.7923 10.403 19.6318 10.5797C19.4713 10.7565 19.2472 10.8622 19.0087 10.8737C18.7703 10.8852 18.537 10.8015 18.3603 10.6411L15.9502 8.45834L16.0393 17.8035C16.0416 18.0422 15.9489 18.272 15.7818 18.4424C15.6146 18.6128 15.3866 18.7098 15.1479 18.7121C14.9092 18.7143 14.6794 18.6217 14.509 18.4545C14.3387 18.2874 14.2417 18.0594 14.2394 17.8207L14.1503 8.47671L11.7822 10.705C11.6962 10.786 11.595 10.8494 11.4845 10.8913C11.3739 10.9332 11.2562 10.953 11.1381 10.9494C11.0199 10.9459 10.9036 10.9191 10.7958 10.8706C10.688 10.8221 10.592 10.7528 10.511 10.6667Z" fill="#FD5353"/>
</svg>
