<svg width="32" height="31" viewBox="0 0 32 31" fill="none" xmlns="http://www.w3.org/2000/svg">
<rect width="32" height="31" rx="15.5" fill="#53CAFD"/>
<path d="M26.9375 15C26.9375 15.3481 26.7992 15.6819 26.5531 15.9281C26.3069 16.1742 25.9731 16.3125 25.625 16.3125H17.3125V24.625C17.3125 24.9731 17.1742 25.3069 16.9281 25.5531C16.6819 25.7992 16.3481 25.9375 16 25.9375C15.6519 25.9375 15.3181 25.7992 15.0719 25.5531C14.8258 25.3069 14.6875 24.9731 14.6875 24.625V16.3125H6.375C6.0269 16.3125 5.69306 16.1742 5.44692 15.9281C5.20078 15.6819 5.0625 15.3481 5.0625 15C5.0625 14.6519 5.20078 14.3181 5.44692 14.0719C5.69306 13.8258 6.0269 13.6875 6.375 13.6875H14.6875V5.375C14.6875 5.0269 14.8258 4.69306 15.0719 4.44692C15.3181 4.20078 15.6519 4.0625 16 4.0625C16.3481 4.0625 16.6819 4.20078 16.9281 4.44692C17.1742 4.69306 17.3125 5.0269 17.3125 5.375V13.6875H25.625C25.9731 13.6875 26.3069 13.8258 26.5531 14.0719C26.7992 14.3181 26.9375 14.6519 26.9375 15Z" fill="white"/>
</svg>
