<svg width="54" height="54" viewBox="0 0 54 54" fill="none" xmlns="http://www.w3.org/2000/svg">
<path d="M49.4405 44.2954C46.5485 39.2196 42.0326 35.2647 36.6197 33.0672C39.3115 31.0484 41.2998 28.2338 42.303 25.0222C43.3063 21.8106 43.2736 18.3647 42.2096 15.1727C41.1456 11.9806 39.1042 9.20432 36.3746 7.23696C33.6451 5.2696 30.3657 4.21094 27.001 4.21094C23.6363 4.21094 20.3569 5.2696 17.6274 7.23696C14.8978 9.20432 12.8564 11.9806 11.7924 15.1727C10.7284 18.3647 10.6957 21.8106 11.6989 25.0222C12.7022 28.2338 14.6905 31.0484 17.3822 33.0672C11.9694 35.2647 7.45351 39.2196 4.56146 44.2954C4.38226 44.5835 4.26282 44.9048 4.21025 45.24C4.15768 45.5752 4.17305 45.9176 4.25544 46.2468C4.33783 46.576 4.48556 46.8852 4.68986 47.1561C4.89415 47.4271 5.15083 47.6542 5.44465 47.8239C5.73846 47.9937 6.0634 48.1026 6.40016 48.1443C6.73692 48.1859 7.07862 48.1595 7.40494 48.0664C7.73126 47.9734 8.03555 47.8157 8.29971 47.6027C8.56387 47.3897 8.78251 47.1258 8.94263 46.8266C12.7648 40.2201 19.5148 36.2798 27.001 36.2798C34.4872 36.2798 41.2372 40.2222 45.0594 46.8266C45.4064 47.3846 45.9568 47.7858 46.5942 47.9454C47.2317 48.1049 47.9062 48.0103 48.4751 47.6816C49.0441 47.3529 49.4629 46.8158 49.6431 46.1839C49.8232 45.5519 49.7506 44.8747 49.4405 44.2954ZM16.0322 20.2485C16.0322 18.0791 16.6756 15.9584 17.8808 14.1546C19.0861 12.3508 20.7992 10.9449 22.8034 10.1147C24.8077 9.28451 27.0132 9.0673 29.1409 9.49053C31.2686 9.91376 33.2231 10.9584 34.7571 12.4924C36.2911 14.0264 37.3358 15.9809 37.759 18.1086C38.1822 20.2363 37.965 22.4418 37.1348 24.4461C36.3046 26.4504 34.8987 28.1634 33.0949 29.3687C31.2911 30.574 29.1704 31.2173 27.001 31.2173C24.0929 31.2139 21.3049 30.0572 19.2486 28.0009C17.1923 25.9446 16.0356 23.1566 16.0322 20.2485Z" fill="#53CAFD"/>
</svg>
