<svg width="39" height="38" viewBox="0 0 39 38" fill="none" xmlns="http://www.w3.org/2000/svg">
<rect width="39" height="38" rx="19" fill="#53CAFD" fill-opacity="0.4"/>
<path d="M17.9921 21.8034C18.9973 21.1342 19.7605 20.1593 20.1687 19.0228C20.577 17.8863 20.6087 16.6487 20.2591 15.4928C19.9095 14.3369 19.1973 13.3242 18.2276 12.6045C17.258 11.8847 16.0825 11.4961 14.8749 11.4961C13.6674 11.4961 12.4918 11.8847 11.5222 12.6045C10.5526 13.3242 9.84032 14.3369 9.49076 15.4928C9.1412 16.6487 9.17288 17.8863 9.58114 19.0228C9.9894 20.1593 10.7525 21.1342 11.7577 21.8034C9.93945 22.4735 8.38659 23.7137 7.33086 25.3387C7.27538 25.4212 7.23684 25.5138 7.21748 25.6113C7.19813 25.7088 7.19834 25.8092 7.21812 25.9066C7.23789 26.004 7.27683 26.0965 7.33268 26.1787C7.38852 26.2609 7.46014 26.3313 7.5434 26.3856C7.62665 26.4399 7.71986 26.4771 7.81762 26.495C7.91538 26.513 8.01573 26.5113 8.11285 26.4902C8.20996 26.469 8.3019 26.4287 8.38332 26.3717C8.46473 26.3147 8.53401 26.2421 8.58711 26.1581C9.2681 25.1107 10.1999 24.25 11.298 23.6542C12.3961 23.0583 13.6256 22.7463 14.8749 22.7463C16.1242 22.7463 17.3538 23.0583 18.4518 23.6542C19.5499 24.25 20.4817 25.1107 21.1627 26.1581C21.2727 26.3216 21.4427 26.4352 21.6358 26.4744C21.8289 26.5136 22.0297 26.4752 22.1947 26.3676C22.3598 26.2599 22.4758 26.0916 22.5178 25.8991C22.5598 25.7066 22.5243 25.5053 22.419 25.3387C21.3633 23.7137 19.8104 22.4735 17.9921 21.8034ZM10.7499 17.1234C10.7499 16.3075 10.9919 15.51 11.4451 14.8316C11.8984 14.1533 12.5426 13.6246 13.2964 13.3124C14.0501 13.0002 14.8795 12.9185 15.6797 13.0776C16.4798 13.2368 17.2148 13.6297 17.7917 14.2066C18.3686 14.7835 18.7615 15.5185 18.9207 16.3186C19.0798 17.1188 18.9981 17.9482 18.6859 18.7019C18.3737 19.4557 17.845 20.0999 17.1667 20.5532C16.4883 21.0064 15.6908 21.2484 14.8749 21.2484C13.7813 21.2471 12.7328 20.8121 11.9595 20.0388C11.1862 19.2655 10.7512 18.217 10.7499 17.1234ZM30.4506 26.3765C30.284 26.4851 30.081 26.5232 29.8864 26.4822C29.6918 26.4412 29.5214 26.3246 29.4127 26.1581C28.7326 25.11 27.8008 24.249 26.7025 23.6534C25.6042 23.0578 24.3743 22.7467 23.1249 22.7484C22.926 22.7484 22.7352 22.6694 22.5946 22.5287C22.4539 22.3881 22.3749 22.1973 22.3749 21.9984C22.3749 21.7995 22.4539 21.6087 22.5946 21.468C22.7352 21.3274 22.926 21.2484 23.1249 21.2484C23.7324 21.2478 24.3322 21.1131 24.8816 20.8538C25.431 20.5945 25.9163 20.2171 26.3029 19.7485C26.6895 19.28 26.9678 18.7318 27.118 18.1432C27.2682 17.5546 27.2865 16.94 27.1716 16.3435C27.0568 15.747 26.8116 15.1832 26.4536 14.6924C26.0956 14.2017 25.6337 13.796 25.1007 13.5045C24.5678 13.2129 23.977 13.0427 23.3707 13.0059C22.7643 12.9692 22.1573 13.0668 21.5931 13.2918C21.501 13.3316 21.402 13.3525 21.3018 13.3534C21.2016 13.3542 21.1022 13.335 21.0095 13.2967C20.9169 13.2585 20.8328 13.2021 20.7623 13.1309C20.6918 13.0596 20.6363 12.975 20.5991 12.8819C20.5619 12.7889 20.5437 12.6893 20.5456 12.5891C20.5475 12.4889 20.5695 12.3901 20.6102 12.2985C20.651 12.2069 20.7097 12.1244 20.7828 12.0559C20.856 11.9874 20.9421 11.9343 21.0362 11.8996C22.3275 11.3846 23.7639 11.3661 25.0681 11.8476C26.3723 12.3291 27.452 13.2766 28.0989 14.5072C28.7458 15.7378 28.914 17.1644 28.5711 18.5117C28.2283 19.8591 27.3986 21.0317 26.2421 21.8034C28.0604 22.4735 29.6133 23.7137 30.669 25.3387C30.7776 25.5053 30.8156 25.7082 30.7747 25.9028C30.7337 26.0975 30.6171 26.2678 30.4506 26.3765Z" fill="#53CAFD"/>
</svg>
